<svg xmlns="http://www.w3.org/2000/svg" width="54.69" height="81" viewBox="0 0 54.69 81">
  <g id="Group_9" data-name="Group 9" transform="translate(4827 -2419)">
    <g id="Group_8" data-name="Group 8" transform="translate(58.731 -126.269)">
      <rect id="Rectangle_28" data-name="Rectangle 28" width="6" height="6" rx="1" transform="translate(-4865.731 2613.269)" fill="#20b5fb"/>
      <rect id="Rectangle_55" data-name="Rectangle 55" width="6" height="6" rx="1" transform="translate(-4858.731 2613.269)" fill="#20b5fb"/>
      <rect id="Rectangle_54" data-name="Rectangle 54" width="6" height="6" rx="1" transform="translate(-4865.731 2620.269)" fill="#20b5fb"/>
      <rect id="Rectangle_56" data-name="Rectangle 56" width="6" height="6" rx="1" transform="translate(-4858.731 2620.269)" fill="#20b5fb"/>
    </g>
    <path id="Intersection_2" data-name="Intersection 2" d="M473.643,298.7a7.3,7.3,0,0,1-1.941-5.523,19.4,19.4,0,0,1,5.2-13.864,86.588,86.588,0,0,1,6.343-6.043q3.5-3.063,5.059-4.621a15.619,15.619,0,0,0,2.624-3.472,8.394,8.394,0,0,0,1.063-4.156,9.66,9.66,0,0,0-3.254-7.383,11.877,11.877,0,0,0-8.394-3.008q-6.015,0-8.86,3.035a24.2,24.2,0,0,0-4.812,8.941q-1.86,6.179-7.055,6.179a6.934,6.934,0,0,1-5.168-2.16,6.6,6.6,0,0,1-2.105-4.672,19.769,19.769,0,0,1,3.335-10.527,25.707,25.707,0,0,1,9.734-8.833,30.641,30.641,0,0,1,14.93-3.5,31.873,31.873,0,0,1,14,2.926,22.712,22.712,0,0,1,9.379,7.957,19.506,19.506,0,0,1,3.308,10.938,16.9,16.9,0,0,1-1.886,8.149,24.871,24.871,0,0,1-4.485,6.043q-2.6,2.543-9.324,8.559a38.263,38.263,0,0,0-2.98,2.981A12.166,12.166,0,0,0,486.691,289a11.675,11.675,0,0,0-.848,2.133q-.3,1.066-.9,3.747-1.039,5.688-6.508,5.687a6.653,6.653,0,0,1-4.792-1.859Z" transform="translate(-5279.343 2179.911)" fill="#19b6fb"/>
  </g>
</svg>
