<svg xmlns="http://www.w3.org/2000/svg" width="151" height="176" viewBox="0 0 151 176">
  <g id="Group_11" data-name="Group 11" transform="translate(5081 -2138)">
    <rect id="Rectangle_57" data-name="Rectangle 57" width="151" height="176" rx="4" transform="translate(-5081 2138)" fill="#0fb7fb"/>
    <g id="Group_10" data-name="Group 10" transform="translate(-205 -230)">
      <g id="Group_8" data-name="Group 8" transform="translate(-4807.331 2487)">
        <rect id="Rectangle_28" data-name="Rectangle 28" width="6" height="6" rx="1" fill="#21203e"/>
        <rect id="Rectangle_55" data-name="Rectangle 55" width="6" height="6" rx="1" transform="translate(7)" fill="#21203e"/>
        <rect id="Rectangle_54" data-name="Rectangle 54" width="6" height="6" rx="1" transform="translate(0 7)" fill="#21203e"/>
        <rect id="Rectangle_56" data-name="Rectangle 56" width="6" height="6" rx="1" transform="translate(7 7)" fill="#21203e"/>
      </g>
      <path id="Intersection_2" data-name="Intersection 2" d="M473.374,298.7a7.356,7.356,0,0,1-1.917-5.523,19.539,19.539,0,0,1,5.134-13.864,85.975,85.975,0,0,1,6.263-6.043q3.457-3.063,5-4.621a15.6,15.6,0,0,0,2.591-3.472,8.479,8.479,0,0,0,1.05-4.156,9.716,9.716,0,0,0-3.213-7.383,11.639,11.639,0,0,0-8.288-3.008q-5.939,0-8.748,3.035a24.3,24.3,0,0,0-4.751,8.941q-1.837,6.179-6.966,6.179a6.8,6.8,0,0,1-5.1-2.16,6.639,6.639,0,0,1-2.078-4.672,19.945,19.945,0,0,1,3.293-10.527,25.5,25.5,0,0,1,9.611-8.833,29.943,29.943,0,0,1,14.742-3.5,31.133,31.133,0,0,1,13.823,2.926,22.5,22.5,0,0,1,9.261,7.957,19.684,19.684,0,0,1,3.266,10.938,17.082,17.082,0,0,1-1.862,8.149,24.852,24.852,0,0,1-4.428,6.043q-2.567,2.543-9.206,8.559a38.025,38.025,0,0,0-2.942,2.981A12.167,12.167,0,0,0,486.257,289a11.761,11.761,0,0,0-.837,2.133q-.3,1.066-.889,3.747-1.026,5.688-6.426,5.687a6.523,6.523,0,0,1-4.732-1.859Z" transform="translate(-5279.343 2179.911)" fill="#21203e"/>
    </g>
  </g>
</svg>
